<?xml version="1.0" standalone="no"?>
<!DOCTYPE svg PUBLIC "-//W3C//DTD SVG 20010904//EN"
 "http://www.w3.org/TR/2001/REC-SVG-20010904/DTD/svg10.dtd">
<svg version="1.0" xmlns="http://www.w3.org/2000/svg"
 width="512.000000pt" height="512.000000pt" viewBox="0 0 512.000000 512.000000"
 preserveAspectRatio="xMidYMid meet">

<g transform="translate(0.000000,512.000000) scale(0.100000,-0.100000)"
fill="#000000" stroke="none">
<path d="M884 3982 l-882 -587 875 -585 c481 -322 879 -586 884 -588 5 -2 9
141 9 357 l0 361 903 0 c872 0 907 -1 982 -20 213 -55 387 -196 485 -395 58
-118 74 -189 74 -330 0 -141 -16 -212 -74 -330 -98 -198 -265 -335 -486 -397
-79 -22 -79 -22 -1111 -26 l-1033 -3 0 -449 0 -450 958 0 c526 0 1022 5 1101
10 297 20 555 104 791 258 414 269 681 691 745 1179 92 699 -279 1382 -920
1693 -114 56 -214 91 -365 128 l-105 26 -972 3 -973 4 -2 364 -3 365 -881
-588z"/>
</g>
</svg>
